<mxfile host="app.diagrams.net" agent="Mozilla/5.0 (X11; Ubuntu; Linux x86_64; rv:136.0) Gecko/20100101 Firefox/136.0" version="26.1.0">
  <diagram name="Page-1" id="Iz_bce_mOnZX7EeWi3lT">
    <mxGraphModel dx="1434" dy="790" grid="1" gridSize="10" guides="1" tooltips="1" connect="1" arrows="1" fold="1" page="1" pageScale="1" pageWidth="850" pageHeight="1100" math="0" shadow="0">
      <root>
        <mxCell id="0" />
        <mxCell id="1" parent="0" />
        <mxCell id="WTP4mRStsItY_csdpR_X-2" value="&lt;div&gt;&lt;font style=&quot;font-size: 40px;&quot;&gt;Application Layer Create Behaviors&lt;/font&gt;&lt;/div&gt;" style="text;html=1;align=center;verticalAlign=middle;whiteSpace=wrap;rounded=0;" vertex="1" parent="1">
          <mxGeometry x="40" y="50" width="780" height="30" as="geometry" />
        </mxCell>
        <mxCell id="WTP4mRStsItY_csdpR_X-3" value="&lt;div&gt;&lt;font style=&quot;font-size: 25px;&quot;&gt;user&lt;/font&gt;&lt;/div&gt;" style="shape=umlActor;verticalLabelPosition=bottom;verticalAlign=top;html=1;outlineConnect=0;sketch=1;curveFitting=1;jiggle=2;" vertex="1" parent="1">
          <mxGeometry x="100" y="300" width="30" height="60" as="geometry" />
        </mxCell>
        <mxCell id="WTP4mRStsItY_csdpR_X-4" value="&lt;font style=&quot;font-size: 25px;&quot;&gt;application layer&lt;/font&gt;" style="rounded=0;whiteSpace=wrap;html=1;" vertex="1" parent="1">
          <mxGeometry x="560" y="200" width="280" height="200" as="geometry" />
        </mxCell>
        <mxCell id="WTP4mRStsItY_csdpR_X-7" value="" style="endArrow=none;html=1;rounded=0;" edge="1" parent="1">
          <mxGeometry width="50" height="50" relative="1" as="geometry">
            <mxPoint x="20" y="440" as="sourcePoint" />
            <mxPoint x="820" y="440" as="targetPoint" />
          </mxGeometry>
        </mxCell>
        <mxCell id="WTP4mRStsItY_csdpR_X-8" value="" style="endArrow=none;dashed=1;html=1;dashPattern=1 3;strokeWidth=2;rounded=0;" edge="1" parent="1">
          <mxGeometry width="50" height="50" relative="1" as="geometry">
            <mxPoint x="720" y="1840" as="sourcePoint" />
            <mxPoint x="720" y="480" as="targetPoint" />
          </mxGeometry>
        </mxCell>
        <mxCell id="WTP4mRStsItY_csdpR_X-9" value="" style="endArrow=none;dashed=1;html=1;dashPattern=1 3;strokeWidth=2;rounded=0;" edge="1" parent="1">
          <mxGeometry width="50" height="50" relative="1" as="geometry">
            <mxPoint x="120" y="1840" as="sourcePoint" />
            <mxPoint x="120" y="480" as="targetPoint" />
          </mxGeometry>
        </mxCell>
        <mxCell id="WTP4mRStsItY_csdpR_X-14" value="CreateContentRequest" style="swimlane;childLayout=stackLayout;horizontal=1;startSize=50;horizontalStack=0;rounded=1;fontSize=14;fontStyle=0;strokeWidth=2;resizeParent=0;resizeLast=1;shadow=0;dashed=0;align=center;arcSize=4;whiteSpace=wrap;html=1;" vertex="1" parent="1">
          <mxGeometry x="345" y="530" width="160" height="120" as="geometry" />
        </mxCell>
        <mxCell id="WTP4mRStsItY_csdpR_X-15" value="&lt;div&gt;+ username&lt;/div&gt;&lt;div&gt;+ text&lt;/div&gt;" style="align=left;strokeColor=none;fillColor=none;spacingLeft=4;spacingRight=4;fontSize=12;verticalAlign=top;resizable=0;rotatable=0;part=1;html=1;whiteSpace=wrap;" vertex="1" parent="WTP4mRStsItY_csdpR_X-14">
          <mxGeometry y="50" width="160" height="70" as="geometry" />
        </mxCell>
        <mxCell id="WTP4mRStsItY_csdpR_X-16" value="CreateContentResponse" style="swimlane;childLayout=stackLayout;horizontal=1;startSize=50;horizontalStack=0;rounded=1;fontSize=14;fontStyle=0;strokeWidth=2;resizeParent=0;resizeLast=1;shadow=0;dashed=0;align=center;arcSize=4;whiteSpace=wrap;html=1;" vertex="1" parent="1">
          <mxGeometry x="345" y="740" width="160" height="120" as="geometry" />
        </mxCell>
        <mxCell id="WTP4mRStsItY_csdpR_X-17" value="&lt;div&gt;+ url&lt;/div&gt;&lt;div&gt;+ creationTime&lt;/div&gt;" style="align=left;strokeColor=none;fillColor=none;spacingLeft=4;spacingRight=4;fontSize=12;verticalAlign=top;resizable=0;rotatable=0;part=1;html=1;whiteSpace=wrap;" vertex="1" parent="WTP4mRStsItY_csdpR_X-16">
          <mxGeometry y="50" width="160" height="70" as="geometry" />
        </mxCell>
        <mxCell id="WTP4mRStsItY_csdpR_X-18" value="" style="shape=flexArrow;endArrow=classic;html=1;rounded=0;" edge="1" parent="1">
          <mxGeometry width="50" height="50" relative="1" as="geometry">
            <mxPoint x="160" y="600" as="sourcePoint" />
            <mxPoint x="320" y="600" as="targetPoint" />
          </mxGeometry>
        </mxCell>
        <mxCell id="WTP4mRStsItY_csdpR_X-19" value="" style="shape=flexArrow;endArrow=classic;html=1;rounded=0;" edge="1" parent="1">
          <mxGeometry width="50" height="50" relative="1" as="geometry">
            <mxPoint x="530" y="600" as="sourcePoint" />
            <mxPoint x="690" y="600" as="targetPoint" />
          </mxGeometry>
        </mxCell>
        <mxCell id="WTP4mRStsItY_csdpR_X-21" value="" style="shape=flexArrow;endArrow=classic;html=1;rounded=0;" edge="1" parent="1">
          <mxGeometry width="50" height="50" relative="1" as="geometry">
            <mxPoint x="690" y="800" as="sourcePoint" />
            <mxPoint x="530" y="800" as="targetPoint" />
          </mxGeometry>
        </mxCell>
        <mxCell id="WTP4mRStsItY_csdpR_X-22" value="" style="shape=flexArrow;endArrow=classic;html=1;rounded=0;" edge="1" parent="1">
          <mxGeometry width="50" height="50" relative="1" as="geometry">
            <mxPoint x="320" y="799.5" as="sourcePoint" />
            <mxPoint x="160" y="799.5" as="targetPoint" />
          </mxGeometry>
        </mxCell>
        <mxCell id="WTP4mRStsItY_csdpR_X-23" value="" style="endArrow=none;dashed=1;html=1;rounded=0;" edge="1" parent="1">
          <mxGeometry width="50" height="50" relative="1" as="geometry">
            <mxPoint x="80" y="920" as="sourcePoint" />
            <mxPoint x="760" y="920" as="targetPoint" />
          </mxGeometry>
        </mxCell>
        <mxCell id="WTP4mRStsItY_csdpR_X-24" value="CreateContentRequest" style="swimlane;childLayout=stackLayout;horizontal=1;startSize=50;horizontalStack=0;rounded=1;fontSize=14;fontStyle=0;strokeWidth=2;resizeParent=0;resizeLast=1;shadow=0;dashed=0;align=center;arcSize=4;whiteSpace=wrap;html=1;" vertex="1" parent="1">
          <mxGeometry x="345" y="970" width="160" height="120" as="geometry" />
        </mxCell>
        <mxCell id="WTP4mRStsItY_csdpR_X-25" value="&lt;div&gt;+ null&lt;/div&gt;&lt;div&gt;+ text&lt;/div&gt;" style="align=left;strokeColor=none;fillColor=none;spacingLeft=4;spacingRight=4;fontSize=12;verticalAlign=top;resizable=0;rotatable=0;part=1;html=1;whiteSpace=wrap;" vertex="1" parent="WTP4mRStsItY_csdpR_X-24">
          <mxGeometry y="50" width="160" height="70" as="geometry" />
        </mxCell>
        <mxCell id="WTP4mRStsItY_csdpR_X-26" value="400 Bad Request" style="swimlane;childLayout=stackLayout;horizontal=1;startSize=50;horizontalStack=0;rounded=1;fontSize=14;fontStyle=0;strokeWidth=2;resizeParent=0;resizeLast=1;shadow=0;dashed=0;align=center;arcSize=4;whiteSpace=wrap;html=1;" vertex="1" parent="1">
          <mxGeometry x="345" y="1180" width="160" height="120" as="geometry" />
        </mxCell>
        <mxCell id="WTP4mRStsItY_csdpR_X-28" value="" style="shape=flexArrow;endArrow=classic;html=1;rounded=0;" edge="1" parent="1">
          <mxGeometry width="50" height="50" relative="1" as="geometry">
            <mxPoint x="160" y="1040" as="sourcePoint" />
            <mxPoint x="320" y="1040" as="targetPoint" />
          </mxGeometry>
        </mxCell>
        <mxCell id="WTP4mRStsItY_csdpR_X-29" value="" style="shape=flexArrow;endArrow=classic;html=1;rounded=0;" edge="1" parent="1">
          <mxGeometry width="50" height="50" relative="1" as="geometry">
            <mxPoint x="530" y="1040" as="sourcePoint" />
            <mxPoint x="690" y="1040" as="targetPoint" />
          </mxGeometry>
        </mxCell>
        <mxCell id="WTP4mRStsItY_csdpR_X-30" value="" style="shape=flexArrow;endArrow=classic;html=1;rounded=0;" edge="1" parent="1">
          <mxGeometry width="50" height="50" relative="1" as="geometry">
            <mxPoint x="690" y="1240" as="sourcePoint" />
            <mxPoint x="530" y="1240" as="targetPoint" />
          </mxGeometry>
        </mxCell>
        <mxCell id="WTP4mRStsItY_csdpR_X-31" value="" style="shape=flexArrow;endArrow=classic;html=1;rounded=0;" edge="1" parent="1">
          <mxGeometry width="50" height="50" relative="1" as="geometry">
            <mxPoint x="320" y="1239.5" as="sourcePoint" />
            <mxPoint x="160" y="1239.5" as="targetPoint" />
          </mxGeometry>
        </mxCell>
        <mxCell id="WTP4mRStsItY_csdpR_X-32" value="" style="endArrow=none;dashed=1;html=1;rounded=0;" edge="1" parent="1">
          <mxGeometry width="50" height="50" relative="1" as="geometry">
            <mxPoint x="80" y="1360" as="sourcePoint" />
            <mxPoint x="760" y="1360" as="targetPoint" />
          </mxGeometry>
        </mxCell>
        <mxCell id="WTP4mRStsItY_csdpR_X-33" value="CreateContentRequest" style="swimlane;childLayout=stackLayout;horizontal=1;startSize=50;horizontalStack=0;rounded=1;fontSize=14;fontStyle=0;strokeWidth=2;resizeParent=0;resizeLast=1;shadow=0;dashed=0;align=center;arcSize=4;whiteSpace=wrap;html=1;" vertex="1" parent="1">
          <mxGeometry x="345" y="1410" width="160" height="120" as="geometry" />
        </mxCell>
        <mxCell id="WTP4mRStsItY_csdpR_X-34" value="&lt;div&gt;+ username&lt;/div&gt;&lt;div&gt;+ null&lt;/div&gt;" style="align=left;strokeColor=none;fillColor=none;spacingLeft=4;spacingRight=4;fontSize=12;verticalAlign=top;resizable=0;rotatable=0;part=1;html=1;whiteSpace=wrap;" vertex="1" parent="WTP4mRStsItY_csdpR_X-33">
          <mxGeometry y="50" width="160" height="70" as="geometry" />
        </mxCell>
        <mxCell id="WTP4mRStsItY_csdpR_X-35" value="400 Bad Request" style="swimlane;childLayout=stackLayout;horizontal=1;startSize=50;horizontalStack=0;rounded=1;fontSize=14;fontStyle=0;strokeWidth=2;resizeParent=0;resizeLast=1;shadow=0;dashed=0;align=center;arcSize=4;whiteSpace=wrap;html=1;" vertex="1" parent="1">
          <mxGeometry x="345" y="1620" width="160" height="120" as="geometry" />
        </mxCell>
        <mxCell id="WTP4mRStsItY_csdpR_X-37" value="" style="shape=flexArrow;endArrow=classic;html=1;rounded=0;" edge="1" parent="1">
          <mxGeometry width="50" height="50" relative="1" as="geometry">
            <mxPoint x="160" y="1480" as="sourcePoint" />
            <mxPoint x="320" y="1480" as="targetPoint" />
          </mxGeometry>
        </mxCell>
        <mxCell id="WTP4mRStsItY_csdpR_X-38" value="" style="shape=flexArrow;endArrow=classic;html=1;rounded=0;" edge="1" parent="1">
          <mxGeometry width="50" height="50" relative="1" as="geometry">
            <mxPoint x="530" y="1480" as="sourcePoint" />
            <mxPoint x="690" y="1480" as="targetPoint" />
          </mxGeometry>
        </mxCell>
        <mxCell id="WTP4mRStsItY_csdpR_X-39" value="" style="shape=flexArrow;endArrow=classic;html=1;rounded=0;" edge="1" parent="1">
          <mxGeometry width="50" height="50" relative="1" as="geometry">
            <mxPoint x="690" y="1680" as="sourcePoint" />
            <mxPoint x="530" y="1680" as="targetPoint" />
          </mxGeometry>
        </mxCell>
        <mxCell id="WTP4mRStsItY_csdpR_X-40" value="" style="shape=flexArrow;endArrow=classic;html=1;rounded=0;" edge="1" parent="1">
          <mxGeometry width="50" height="50" relative="1" as="geometry">
            <mxPoint x="320" y="1679.5" as="sourcePoint" />
            <mxPoint x="160" y="1679.5" as="targetPoint" />
          </mxGeometry>
        </mxCell>
      </root>
    </mxGraphModel>
  </diagram>
</mxfile>
